<svg class="win" version="1.1" id="Layer_1" xmlns="http://www.w3.org/2000/svg" xmlns:xlink="http://www.w3.org/1999/xlink" x="0px" y="0px" viewBox="0 0 92.9 89.8" style="enable-background:new 0 0 92.9 89.8;" xml:space="preserve">
<g>
	<defs>
		<rect id="SVGID_1_" y="0" width="28" height="27"/>
	</defs>
	<clipPath id="SVGID_2_">
		<use xlink:href="#SVGID_1_"  style="overflow:visible;"/>
	</clipPath>
	<path  d="M37.9,60.1v16c0,0.7,0.3,1.3,0.7,1.8c0.5,0.5,1.1,0.7,1.8,0.7h12c0.7,0,1.3-0.3,1.8-0.7
		c0.5-0.5,0.7-1.1,0.7-1.8v-16c-1.6,0.7-3.3,1.1-5,1.4v12.1h-7V61.5C41.2,61.3,39.6,60.8,37.9,60.1"/>
	<path  d="M56.2,80.2H36.7c-2.7,0-4.8,2.2-4.8,4.8c0,2.7,2.2,4.8,4.8,4.8h19.5c2.7,0,4.8-2.2,4.8-4.8
		C61,82.3,58.9,80.2,56.2,80.2"/>
	<path  d="M90.9,10.8c-1.3-2.5-3.3-4.7-5.9-6c-1.7-0.9-3.5-1.4-5.3-1.5c-0.1,2-0.2,4-0.4,6c1,0.1,2,0.4,3,0.8
		c1.5,0.8,2.6,1.9,3.4,3.5c0.8,1.6,1.3,3.5,1.3,5.6c0,2.5-0.6,5.3-2,7.9l-4.6,8.8c-1.4,2.7-3.4,4.8-5.5,6.3c-1.9,1.3-3.9,2-5.8,2.1
		c-1.2,2-2.5,3.9-3.9,5.6c1.1,0.3,2.2,0.4,3.3,0.4c3.4,0,6.8-1.2,9.8-3.2c3-2,5.6-4.9,7.4-8.4l-2.7-1.4l2.7,1.4l4.6-8.8
		c1.8-3.5,2.7-7.2,2.7-10.7C92.9,16.2,92.3,13.3,90.9,10.8"/>
	<path  d="M18.2,42.2c-2.1-1.4-4.1-3.6-5.5-6.3L8,27.1c-1.4-2.7-2-5.4-2-7.9c0-2.1,0.5-4.1,1.3-5.6
		c0.8-1.6,1.9-2.7,3.4-3.5c0.9-0.5,1.9-0.8,2.9-0.8c-0.2-2-0.3-4-0.4-6c-1.8,0.1-3.7,0.6-5.3,1.5c-2.6,1.4-4.6,3.5-5.9,6
		C0.6,13.3,0,16.2,0,19.2c0,3.5,0.9,7.2,2.7,10.7l4.6,8.8l2.7-1.4l-2.7,1.4c1.9,3.5,4.5,6.4,7.4,8.4c3,2,6.3,3.2,9.8,3.2
		c1.1,0,2.2-0.1,3.3-0.4c-1.4-1.7-2.7-3.6-3.9-5.6C22.1,44.2,20.1,43.5,18.2,42.2"/>
	<path  d="M67.6,40.5c5.4-10.3,8.9-24.6,9.1-40.5H16.1c0.2,11.8,2.1,22.7,5.3,31.7c3.4,9.4,8.1,16.9,13.5,21.2
		c3.6,2.9,7.5,4.4,11.5,4.4c4,0,7.8-1.5,11.5-4.4C61.5,50,64.8,45.8,67.6,40.5"/>
</g>
</svg>
